# xmcd
#
# Track frame offsets:
# 150
# 18526
# 39821
# 54195
# 66780
# 82053
# 96720
# 108704
# 120493
# 135052
# 151546
# 168024
# 179269
# 197064
# 210114
#
# Disc length: 3044 seconds
#
# Revision: 1
# Processed by: cddbd v1.5PL3 Copyright (c) Steve Scherf et al.
# Submitted via: Easy CD Ripper 1.45
#
DISCID=b30be20f
DTITLE=Kevin McNiven - A Song Takes Flight
DYEAR=2003
DGENRE=Country
TTITLE0=The Song Takes Flight
TTITLE1=Kevin McNiven - Canadian Pacific
TTITLE2=Kevin McNiven - Goodbye to Montana
TTITLE3=Kevin McNiven - Singing Cowboy
TTITLE4=Kevin McNiven - Saddle Bound and Soaring
TTITLE5=Kevin McNiven - Navajo Rug
TTITLE6=Kevin McNiven - The Auctioneer
TTITLE7=Kevin McNiven - Wyoming Rain
TTITLE8=Kevin McNiven - One Empty Cot in the BunkHouse
TTITLE9=Kevin McNiven - Strawberry Roan
TTITLE10=Kevin McNiven - Soncho
TTITLE11=Kevin McNiven - Windy Bill
TTITLE12=Kevin McNiven - When the Works All Done This Fa
TTITLE13=Kevin McNiven - Red River Valley
TTITLE14=Kevin McNiven - Cowboy Jack
EXTD=
EXTT0=
EXTT1=
EXTT2=
EXTT3=
EXTT4=
EXTT5=
EXTT6=
EXTT7=
EXTT8=
EXTT9=
EXTT10=
EXTT11=
EXTT12=
EXTT13=
EXTT14=
PLAYORDER=
